<svg version="1.2" xmlns="http://www.w3.org/2000/svg" viewBox="0 0 694 102" width="694" height="102">
	<title>New Project</title>
	<style>
		.s0 { fill: #ffffff } 
	</style>
	<path id="curiousoft" class="s0" aria-label="curiousoft"  d="m41.9 104.5c9.4 0 17.2-1.3 24.1-4.3v-15c-5.9 2.8-12.8 4.1-19.6 4.1-16.4 0-23.3-6.5-23.3-21.8 0-16.7 8.3-21.9 23.4-21.9 7.5 0 14.4 1.5 19.3 3.9v-14.6c-6.7-3.2-13.3-4.5-23.4-4.5-24.1 0-39.9 12-39.9 37.1 0 24.2 14 37 39.4 37zm64.5 0c11 0 19-3.5 25-8.3l0.7 6.8h18.8v-71.1h-20.3v50.4c-4.2 4.2-10.2 7.3-17.2 7.3-9.3 0.1-13.8-4-13.8-13.6v-44.1h-20.2v44.5c0 18.5 9.9 28.1 27 28.1zm61.8-1.5h20.2v-49.7c5.9-3.2 17.1-6.4 25.4-7.6v-15.3c-9.3 1.2-19.5 4.8-26 8.8l-0.9-7.3h-18.7zm65.7-84.1h22v-16h-22zm1.6 84.2h20.3v-71.1h-29.2l-1.7 15h10.6zm73.1 1.5c26.7 0 38.7-13.4 38.7-37.1 0-23.5-12.2-37-38.7-37-26.5 0-38.6 13.5-38.6 37 0 23.7 12 37.1 38.6 37.1zm0-17.3c-13 0-18-5.2-18-19.8 0-14.5 5-19.8 18-19.8 13 0 18.1 5.3 18.1 19.8 0 14.6-5.1 19.8-18.1 19.8zm79 17.3c11.1 0 19-3.5 25-8.3l0.8 6.8h18.7v-71.1h-20.2v50.4c-4.2 4.2-10.2 7.3-17.3 7.3-9.3 0-13.8-4-13.8-13.6v-44.1h-20.2v44.5c0 18.5 9.9 28.1 27 28.1zm86.9 0c20.6 0 31.4-7.4 31.4-21.6 0-12.3-5.1-17.7-22-23-11.7-3.6-17-4.3-17-8.7 0-4 5.6-4.8 14.1-4.8 6 0 13.7 1.4 19.1 3.9v-16.6c-5.4-1.8-13.7-3.3-22.4-3.3-22 0-31.3 7.6-31.3 21.1 0 12.3 7.2 17.4 20.2 21.8 12.3 4 18.8 5.1 18.8 9.9 0 4.2-3.8 4.9-13.7 4.9-7.5 0-17.1-1.5-24-4.3v16.8c5.9 2.2 16.1 3.9 26.7 3.9zm81.2 0c26.7 0 38.7-13.4 38.7-37.1 0-23.5-12.2-37-38.7-37-26.4 0-38.6 13.5-38.6 37 0 23.7 12 37.1 38.6 37.1zm0-17.3c-12.9 0-18-5.2-18-19.8 0-14.5 5.1-19.8 18-19.8 13 0 18.2 5.3 18.2 19.8 0 14.6-5.2 19.8-18.2 19.8zm51.5 15.8h20.2v-55.5h17.1l0.9-15.6h-18v-6.9c0-7.5 3.2-10.4 11.7-10.4 3.3 0 6 0.6 9 1.7v-14c-4.5-1.8-9.4-2.8-16-2.8-16.5 0-24.9 10.5-24.9 25.2v7.2h-10v15.6h10zm72.1 1.5c6.5 0 11.4-0.9 15.9-2.7v-14c-3.1 1.1-5.8 1.5-8.7 1.5-7.6 0-11.1-2.4-11.1-10.2v-31.6h16.8l1.2-15.6h-18v-21.3l-20.2 6v15.3h-10.1v15.6h10.1v33c0 14.8 7.6 24 24.1 24z"/>
</svg>