<svg version="1.1" id="Layer_1" xmlns="http://www.w3.org/2000/svg" xmlns:xlink="http://www.w3.org/1999/xlink" x="0px" y="0px"
	 width="100%" viewBox="0 0 512 154" enable-background="new 0 0 512 154" xml:space="preserve">
<path fill="#000000" opacity="1.000000" stroke="none" 
	d="
M1.000001,65.000000 
	C1.000000,43.676220 1.000000,22.352438 0.999999,1.021492 
	C171.580688,1.014328 342.161377,1.014328 512.871033,1.014328 
	C512.871033,52.224091 512.871033,103.448616 512.871033,155.000000 
	C430.979401,155.000000 348.958344,155.000000 266.150757,154.646454 
	C265.909485,151.122345 266.857758,147.960251 266.924896,144.779587 
	C267.131165,135.005875 267.000000,125.225067 267.000000,115.798470 
	C282.117584,128.233231 302.229980,124.391022 312.978485,108.611481 
	C323.720062,92.842163 324.112274,75.981064 318.163269,58.162861 
	C312.537933,41.314014 294.309448,32.397690 276.417023,40.933048 
	C272.243408,42.924011 268.180267,45.146423 264.066101,47.262001 
	C263.916351,39.000095 263.916351,39.000095 255.676468,39.000000 
	C255.010391,38.999992 254.328049,39.095314 253.680847,38.984783 
	C248.891388,38.166809 247.877808,40.363525 247.902496,44.864002 
	C248.083282,77.833435 247.968140,110.804398 248.043961,143.774643 
	C248.052567,147.517136 248.666672,151.258255 249.000000,155.000000 
	C166.452057,155.000000 83.904114,155.000000 1.000000,155.000000 
	C1.000000,136.313950 1.000000,117.625633 1.316058,98.177200 
	C2.421431,98.774658 3.490705,100.042824 3.957186,101.503502 
	C9.199833,117.919563 27.830870,127.263168 43.115185,121.324280 
	C48.259953,119.325226 53.028236,116.357254 58.173119,113.727585 
	C58.535496,115.771973 58.973236,118.241524 59.422089,120.773773 
	C64.163689,120.773773 68.913712,120.773773 73.642769,120.773773 
	C73.642769,81.389130 73.642769,42.231808 73.642769,3.000077 
	C68.960220,3.000077 64.627487,3.151882 60.311275,2.950215 
	C57.079830,2.799233 55.819778,3.926076 55.945766,7.236065 
	C56.148235,12.555313 56.000011,17.887909 56.000000,23.214865 
	C55.999989,30.660172 56.000000,38.105480 56.000000,45.493168 
	C48.099712,36.956684 37.413589,35.955669 26.992842,38.858971 
	C15.170285,42.152824 7.405883,50.834976 3.582299,62.750435 
	C3.283781,63.680710 1.886573,64.258423 1.000001,65.000000 
M168.105408,44.366516 
	C152.520874,57.546009 148.916107,74.856613 153.287140,93.544907 
	C156.607834,107.742561 165.937149,117.995667 180.741425,121.904991 
	C192.001282,124.878372 202.547791,122.778877 212.112076,116.329407 
	C220.534546,110.649902 224.850250,102.500755 227.359726,92.580391 
	C231.016830,78.123329 229.110931,64.907776 220.854568,52.882370 
	C215.504593,45.090115 207.691299,39.455833 198.203949,38.200947 
	C187.995117,36.850624 177.654221,37.450314 168.105408,44.366516 
M409.449310,105.049454 
	C400.478699,101.443130 398.641998,93.523041 397.417694,85.000000 
	C411.933960,85.000000 426.415497,85.000008 440.897034,85.000000 
	C449.964081,85.000000 451.318939,83.604889 450.961975,74.247070 
	C450.888916,72.331833 450.535553,70.369606 449.955200,68.542175 
	C448.176849,62.942665 447.101013,56.876480 444.160309,51.939941 
	C437.873322,41.386021 428.011841,37.639214 415.625397,37.783661 
	C400.454803,37.960579 390.872467,46.329609 384.260437,58.055378 
	C377.332092,70.342194 376.909271,83.828918 381.925964,97.421402 
	C387.389496,112.224640 401.316467,122.517296 417.112213,123.081818 
	C428.090302,123.474159 437.710632,119.992477 447.268890,114.223518 
	C445.175262,110.191483 443.064117,106.125717 441.627258,103.358505 
	C434.881744,105.014313 428.864655,107.160118 422.695679,107.770119 
	C418.593048,108.175789 414.273560,106.387939 409.449310,105.049454 
M459.695679,40.002670 
	C454.176422,42.903801 458.173828,47.951885 457.268188,51.895523 
	C457.200653,52.189690 460.544861,53.587723 462.401611,53.917347 
	C464.443817,54.279896 466.600067,53.999996 469.000000,53.999996 
	C469.000000,68.614548 468.732758,82.749168 469.099640,96.867317 
	C469.321777,105.414551 471.206329,113.648544 478.987305,118.992157 
	C488.786377,125.721733 499.199890,122.704002 509.506836,120.724037 
	C509.856049,120.656952 510.245728,119.293091 510.139008,118.608063 
	C509.531677,114.708534 508.779053,110.831635 508.007446,106.569160 
	C505.298279,107.082359 503.382477,107.370056 501.503998,107.815224 
	C495.898895,109.143539 488.143158,105.558746 488.083862,101.127419 
	C487.875061,85.526665 488.002747,69.921410 488.002747,54.000000 
	C492.093414,54.000000 495.724518,54.000000 499.355652,54.000000 
	C509.341858,54.000000 509.651215,53.608166 509.030762,43.480747 
	C508.839325,40.355789 507.822632,38.766262 504.312408,38.932606 
	C498.906616,39.188774 493.479706,39.000023 487.999847,39.000023 
	C487.999847,32.471748 488.162659,26.637737 487.875641,20.825943 
	C487.810760,19.513041 486.273834,17.275135 485.254456,17.180101 
	C480.882965,16.772551 476.451721,17.006283 472.254028,17.006283 
	C471.358032,24.812855 470.544586,31.900457 469.767212,38.673519 
	C466.391388,39.161545 463.490784,39.580868 459.695679,40.002670 
M341.000000,49.500000 
	C341.000000,67.646187 340.893066,85.793396 341.067749,103.937897 
	C341.117493,109.103577 341.860962,114.320808 345.812347,118.303917 
	C352.264374,124.807777 359.933289,123.466537 368.331085,121.737183 
	C367.336487,116.846542 366.392639,112.205490 365.450043,107.570496 
	C360.323029,108.392593 359.007477,106.955360 359.005219,100.843887 
	C358.993835,70.045296 359.000000,39.246708 359.000000,8.448121 
	C359.000000,6.689733 359.000000,4.931345 359.000000,3.302492 
	C352.650482,3.302492 346.914520,3.302492 341.000000,3.302492 
	C341.000000,18.569487 341.000000,33.534744 341.000000,49.500000 
M119.440491,47.038612 
	C118.206795,48.645130 116.973099,50.251644 115.335114,52.384624 
	C115.138222,51.135559 115.020233,50.706123 115.009750,50.274078 
	C114.730591,38.763756 114.732841,38.892174 103.523720,38.923965 
	C100.032959,38.933865 98.918716,40.020454 98.935890,43.521049 
	C99.060097,68.832916 99.007195,94.145645 99.031258,119.458084 
	C99.031677,119.902412 99.291245,120.346489 99.409988,120.726936 
	C105.287132,120.726936 111.022774,120.726936 117.000000,120.726936 
	C117.000000,104.993568 117.203293,89.528343 116.919807,74.072052 
	C116.762756,65.509308 127.037804,52.420010 138.419586,54.013687 
	C140.450989,54.298126 142.458008,54.756798 144.513397,55.141975 
	C145.405991,50.803997 145.783981,46.720493 147.140167,42.992874 
	C148.563965,39.079372 146.610443,38.343174 143.676224,38.016327 
	C134.397430,36.982742 126.116325,38.809689 119.440491,47.038612 
z"/>
<path fill="#FFFFFF" opacity="1.000000" stroke="none" 
	d="
M249.467606,155.000000 
	C248.666672,151.258255 248.052567,147.517136 248.043961,143.774643 
	C247.968140,110.804398 248.083282,77.833435 247.902496,44.864002 
	C247.877808,40.363525 248.891388,38.166809 253.680847,38.984783 
	C254.328049,39.095314 255.010391,38.999992 255.676468,39.000000 
	C263.916351,39.000095 263.916351,39.000095 264.066101,47.262001 
	C268.180267,45.146423 272.243408,42.924011 276.417023,40.933048 
	C294.309448,32.397690 312.537933,41.314014 318.163269,58.162861 
	C324.112274,75.981064 323.720062,92.842163 312.978485,108.611481 
	C302.229980,124.391022 282.117584,128.233231 267.000000,115.798470 
	C267.000000,125.225067 267.131165,135.005875 266.924896,144.779587 
	C266.857758,147.960251 265.909485,151.122345 265.682129,154.646454 
	C260.645081,155.000000 255.290146,155.000000 249.467606,155.000000 
M267.000000,68.782158 
	C266.927399,79.079628 266.846436,89.377060 266.801300,99.674652 
	C266.798340,100.348183 266.862427,101.186111 267.245270,101.671753 
	C270.979553,106.409233 285.735718,108.904144 290.776703,105.767776 
	C298.346283,101.058212 302.060516,94.267288 302.005310,85.368546 
	C301.975433,80.554718 301.942169,75.739693 302.013855,70.926750 
	C302.115906,64.074097 297.421997,54.727623 288.551208,53.194489 
	C280.819153,51.858162 274.849701,55.563942 268.856506,59.573437 
	C265.423370,61.870266 267.451874,65.075661 267.000000,68.782158 
z"/>
<path fill="#FFFFFF" opacity="1.000000" stroke="none" 
	d="
M1.000001,65.468658 
	C1.886573,64.258423 3.283781,63.680710 3.582299,62.750435 
	C7.405883,50.834976 15.170285,42.152824 26.992842,38.858971 
	C37.413589,35.955669 48.099712,36.956684 56.000000,45.493168 
	C56.000000,38.105480 55.999989,30.660172 56.000000,23.214865 
	C56.000011,17.887909 56.148235,12.555313 55.945766,7.236065 
	C55.819778,3.926076 57.079830,2.799233 60.311275,2.950215 
	C64.627487,3.151882 68.960220,3.000077 73.642769,3.000077 
	C73.642769,42.231808 73.642769,81.389130 73.642769,120.773773 
	C68.913712,120.773773 64.163689,120.773773 59.422089,120.773773 
	C58.973236,118.241524 58.535496,115.771973 58.173119,113.727585 
	C53.028236,116.357254 48.259953,119.325226 43.115185,121.324280 
	C27.830870,127.263168 9.199833,117.919563 3.957186,101.503502 
	C3.490705,100.042824 2.421431,98.774658 1.316058,97.708542 
	C1.000000,87.312439 1.000000,76.624878 1.000001,65.468658 
M48.198738,104.984108 
	C53.563335,102.248558 56.621052,98.525520 56.145050,91.841087 
	C55.544113,83.402283 55.628792,74.865761 56.140282,66.415123 
	C56.443417,61.406769 54.850971,58.508961 50.608715,55.993546 
	C39.913639,49.651985 26.153688,53.425617 22.012554,65.736061 
	C18.463034,76.287796 19.094042,86.922195 22.198536,97.413437 
	C24.675501,105.784027 40.466370,110.462402 48.198738,104.984108 
z"/>
<path fill="#FFFFFF" opacity="1.000000" stroke="none" 
	d="
M168.435349,44.194221 
	C177.654221,37.450314 187.995117,36.850624 198.203949,38.200947 
	C207.691299,39.455833 215.504593,45.090115 220.854568,52.882370 
	C229.110931,64.907776 231.016830,78.123329 227.359726,92.580391 
	C224.850250,102.500755 220.534546,110.649902 212.112076,116.329407 
	C202.547791,122.778877 192.001282,124.878372 180.741425,121.904991 
	C165.937149,117.995667 156.607834,107.742561 153.287140,93.544907 
	C148.916107,74.856613 152.520874,57.546009 168.435349,44.194221 
M193.105927,53.001221 
	C183.402649,51.955284 177.024780,56.583790 173.433273,65.150368 
	C169.358688,74.869240 169.811676,84.927521 173.036102,94.727325 
	C175.635071,102.626205 181.528809,107.706688 189.885239,107.814606 
	C198.766235,107.929306 205.522720,103.215408 207.935425,94.449318 
	C209.462479,88.901115 209.770264,82.916199 209.910248,77.109917 
	C210.149841,67.172592 205.497772,55.984070 193.105927,53.001221 
z"/>
<path fill="#FFFFFF" opacity="1.000000" stroke="none" 
	d="
M409.750214,105.315681 
	C414.273560,106.387939 418.593048,108.175789 422.695679,107.770119 
	C428.864655,107.160118 434.881744,105.014313 441.627258,103.358505 
	C443.064117,106.125717 445.175262,110.191483 447.268890,114.223518 
	C437.710632,119.992477 428.090302,123.474159 417.112213,123.081818 
	C401.316467,122.517296 387.389496,112.224640 381.925964,97.421402 
	C376.909271,83.828918 377.332092,70.342194 384.260437,58.055378 
	C390.872467,46.329609 400.454803,37.960579 415.625397,37.783661 
	C428.011841,37.639214 437.873322,41.386021 444.160309,51.939941 
	C447.101013,56.876480 448.176849,62.942665 449.955200,68.542175 
	C450.535553,70.369606 450.888916,72.331833 450.961975,74.247070 
	C451.318939,83.604889 449.964081,85.000000 440.897034,85.000000 
	C426.415497,85.000008 411.933960,85.000000 397.417694,85.000000 
	C398.641998,93.523041 400.478699,101.443130 409.750214,105.315681 
M428.464905,55.978271 
	C422.218689,51.264439 415.474121,50.363113 408.549072,54.055092 
	C401.532013,57.796165 398.189941,64.028656 397.571411,71.820160 
	C409.755951,71.820160 421.702484,71.820160 433.973328,71.820160 
	C434.318298,65.920204 432.229126,61.046646 428.464905,55.978271 
z"/>
<path fill="#FFFFFF" opacity="1.000000" stroke="none" 
	d="
M460.142944,40.001427 
	C463.490784,39.580868 466.391388,39.161545 469.767212,38.673519 
	C470.544586,31.900457 471.358032,24.812855 472.254028,17.006283 
	C476.451721,17.006283 480.882965,16.772551 485.254456,17.180101 
	C486.273834,17.275135 487.810760,19.513041 487.875641,20.825943 
	C488.162659,26.637737 487.999847,32.471748 487.999847,39.000023 
	C493.479706,39.000023 498.906616,39.188774 504.312408,38.932606 
	C507.822632,38.766262 508.839325,40.355789 509.030762,43.480747 
	C509.651215,53.608166 509.341858,54.000000 499.355652,54.000000 
	C495.724518,54.000000 492.093414,54.000000 488.002747,54.000000 
	C488.002747,69.921410 487.875061,85.526665 488.083862,101.127419 
	C488.143158,105.558746 495.898895,109.143539 501.503998,107.815224 
	C503.382477,107.370056 505.298279,107.082359 508.007446,106.569160 
	C508.779053,110.831635 509.531677,114.708534 510.139008,118.608063 
	C510.245728,119.293091 509.856049,120.656952 509.506836,120.724037 
	C499.199890,122.704002 488.786377,125.721733 478.987305,118.992157 
	C471.206329,113.648544 469.321777,105.414551 469.099640,96.867317 
	C468.732758,82.749168 469.000000,68.614548 469.000000,53.999996 
	C466.600067,53.999996 464.443817,54.279896 462.401611,53.917347 
	C460.544861,53.587723 457.200653,52.189690 457.268188,51.895523 
	C458.173828,47.951885 454.176422,42.903801 460.142944,40.001427 
z"/>
<path fill="#FFFFFF" opacity="1.000000" stroke="none" 
	d="
M341.000000,49.000000 
	C341.000000,33.534744 341.000000,18.569487 341.000000,3.302492 
	C346.914520,3.302492 352.650482,3.302492 359.000000,3.302492 
	C359.000000,4.931345 359.000000,6.689733 359.000000,8.448121 
	C359.000000,39.246708 358.993835,70.045296 359.005219,100.843887 
	C359.007477,106.955360 360.323029,108.392593 365.450043,107.570496 
	C366.392639,112.205490 367.336487,116.846542 368.331085,121.737183 
	C359.933289,123.466537 352.264374,124.807777 345.812347,118.303917 
	C341.860962,114.320808 341.117493,109.103577 341.067749,103.937897 
	C340.893066,85.793396 341.000000,67.646187 341.000000,49.000000 
z"/>
<path fill="#FFFFFF" opacity="1.000000" stroke="none" 
	d="
M119.707733,46.789474 
	C126.116325,38.809689 134.397430,36.982742 143.676224,38.016327 
	C146.610443,38.343174 148.563965,39.079372 147.140167,42.992874 
	C145.783981,46.720493 145.405991,50.803997 144.513397,55.141975 
	C142.458008,54.756798 140.450989,54.298126 138.419586,54.013687 
	C127.037804,52.420010 116.762756,65.509308 116.919807,74.072052 
	C117.203293,89.528343 117.000000,104.993568 117.000000,120.726936 
	C111.022774,120.726936 105.287132,120.726936 99.409988,120.726936 
	C99.291245,120.346489 99.031677,119.902412 99.031258,119.458084 
	C99.007195,94.145645 99.060097,68.832916 98.935890,43.521049 
	C98.918716,40.020454 100.032959,38.933865 103.523720,38.923965 
	C114.732841,38.892174 114.730591,38.763756 115.009750,50.274078 
	C115.020233,50.706123 115.138222,51.135559 115.335114,52.384624 
	C116.973099,50.251644 118.206795,48.645130 119.707733,46.789474 
z"/>
<path fill="#000000" opacity="1.000000" stroke="none" 
	d="
M267.000000,68.324631 
	C267.451874,65.075661 265.423370,61.870266 268.856506,59.573437 
	C274.849701,55.563942 280.819153,51.858162 288.551208,53.194489 
	C297.421997,54.727623 302.115906,64.074097 302.013855,70.926750 
	C301.942169,75.739693 301.975433,80.554718 302.005310,85.368546 
	C302.060516,94.267288 298.346283,101.058212 290.776703,105.767776 
	C285.735718,108.904144 270.979553,106.409233 267.245270,101.671753 
	C266.862427,101.186111 266.798340,100.348183 266.801300,99.674652 
	C266.846436,89.377060 266.927399,79.079628 267.000000,68.324631 
z"/>
<path fill="#000000" opacity="1.000000" stroke="none" 
	d="
M47.802582,105.041656 
	C40.466370,110.462402 24.675501,105.784027 22.198536,97.413437 
	C19.094042,86.922195 18.463034,76.287796 22.012554,65.736061 
	C26.153688,53.425617 39.913639,49.651985 50.608715,55.993546 
	C54.850971,58.508961 56.443417,61.406769 56.140282,66.415123 
	C55.628792,74.865761 55.544113,83.402283 56.145050,91.841087 
	C56.621052,98.525520 53.563335,102.248558 47.802582,105.041656 
z"/>
<path fill="#000000" opacity="1.000000" stroke="none" 
	d="
M193.539185,53.009640 
	C205.497772,55.984070 210.149841,67.172592 209.910248,77.109917 
	C209.770264,82.916199 209.462479,88.901115 207.935425,94.449318 
	C205.522720,103.215408 198.766235,107.929306 189.885239,107.814606 
	C181.528809,107.706688 175.635071,102.626205 173.036102,94.727325 
	C169.811676,84.927521 169.358688,74.869240 173.433273,65.150368 
	C177.024780,56.583790 183.402649,51.955284 193.539185,53.009640 
z"/>
<path fill="#000000" opacity="1.000000" stroke="none" 
	d="
M428.737610,56.248856 
	C432.229126,61.046646 434.318298,65.920204 433.973328,71.820160 
	C421.702484,71.820160 409.755951,71.820160 397.571411,71.820160 
	C398.189941,64.028656 401.532013,57.796165 408.549072,54.055092 
	C415.474121,50.363113 422.218689,51.264439 428.737610,56.248856 
z"/>
</svg>